<mxfile host="app.diagrams.net" modified="2024-01-25T10:41:53.956Z" agent="Mozilla/5.0 (Windows NT 10.0; Win64; x64; rv:121.0) Gecko/20100101 Firefox/121.0" etag="ip-9JMhN3hM0VYcJxxcZ" version="23.0.1" type="device">
  <diagram name="Page-1" id="hFrug21-qPaBCBHb7gQJ">
    <mxGraphModel dx="1194" dy="786" grid="1" gridSize="10" guides="1" tooltips="1" connect="1" arrows="1" fold="1" page="1" pageScale="1" pageWidth="827" pageHeight="1169" math="0" shadow="0">
      <root>
        <mxCell id="0" />
        <mxCell id="1" parent="0" />
        <mxCell id="yWH1J5Y2Vb3sUMsjwo9--1" value="Actor" style="shape=umlActor;verticalLabelPosition=bottom;verticalAlign=top;html=1;outlineConnect=0;fontSize=1;" vertex="1" parent="1">
          <mxGeometry x="130" y="100" width="120" height="200" as="geometry" />
        </mxCell>
        <mxCell id="yWH1J5Y2Vb3sUMsjwo9--3" value="Usuario registrado" style="text;html=1;strokeColor=none;fillColor=none;align=center;verticalAlign=middle;whiteSpace=wrap;rounded=0;" vertex="1" parent="1">
          <mxGeometry x="125" y="300" width="130" height="30" as="geometry" />
        </mxCell>
        <mxCell id="yWH1J5Y2Vb3sUMsjwo9--4" value="" style="rounded=0;whiteSpace=wrap;html=1;" vertex="1" parent="1">
          <mxGeometry x="340" width="410" height="400" as="geometry" />
        </mxCell>
        <mxCell id="yWH1J5Y2Vb3sUMsjwo9--5" value="Sistema" style="text;html=1;strokeColor=none;fillColor=none;align=center;verticalAlign=middle;whiteSpace=wrap;rounded=0;" vertex="1" parent="1">
          <mxGeometry x="515" y="10" width="60" height="30" as="geometry" />
        </mxCell>
        <mxCell id="yWH1J5Y2Vb3sUMsjwo9--6" value="Modificar mi contraseÃ±a" style="ellipse;whiteSpace=wrap;html=1;" vertex="1" parent="1">
          <mxGeometry x="395" y="50" width="120" height="80" as="geometry" />
        </mxCell>
        <mxCell id="yWH1J5Y2Vb3sUMsjwo9--7" value="Modificar mis datos" style="ellipse;whiteSpace=wrap;html=1;" vertex="1" parent="1">
          <mxGeometry x="515" y="210" width="120" height="80" as="geometry" />
        </mxCell>
        <mxCell id="yWH1J5Y2Vb3sUMsjwo9--8" value="" style="endArrow=none;html=1;rounded=0;entryX=0.033;entryY=0.625;entryDx=0;entryDy=0;entryPerimeter=0;exitX=0.75;exitY=0.1;exitDx=0;exitDy=0;exitPerimeter=0;" edge="1" parent="1" source="yWH1J5Y2Vb3sUMsjwo9--1" target="yWH1J5Y2Vb3sUMsjwo9--7">
          <mxGeometry width="50" height="50" relative="1" as="geometry">
            <mxPoint x="390" y="380" as="sourcePoint" />
            <mxPoint x="440" y="330" as="targetPoint" />
          </mxGeometry>
        </mxCell>
        <mxCell id="yWH1J5Y2Vb3sUMsjwo9--9" value="" style="endArrow=none;html=1;rounded=0;entryX=0;entryY=0.5;entryDx=0;entryDy=0;exitX=0.5;exitY=0;exitDx=0;exitDy=0;exitPerimeter=0;" edge="1" parent="1" source="yWH1J5Y2Vb3sUMsjwo9--1" target="yWH1J5Y2Vb3sUMsjwo9--6">
          <mxGeometry width="50" height="50" relative="1" as="geometry">
            <mxPoint x="390" y="380" as="sourcePoint" />
            <mxPoint x="440" y="330" as="targetPoint" />
          </mxGeometry>
        </mxCell>
      </root>
    </mxGraphModel>
  </diagram>
</mxfile>
